<?xml version="1.0" encoding="UTF-8"?>
<svg version="1.1" viewBox="0 0 2048 1810" width="1280" height="1280" xmlns="http://www.w3.org/2000/svg">
<path transform="translate(0)" d="m0 0h2048v1810h-2048z" fill="#324658"/>
<path transform="translate(934,504)" d="m0 0 7 1 16 7 13 8 14 10 10 8 6 5 7 8 7 11 4 11 3 18 1 12 1 32v384l2 10 2 4 31 1 1 1v8l-2 1h-107l-4-1 12 18 13 19 10 13 12 14 12 13 14 12 17 13 16 10 15 7 18 6 31 6 8 1h39l26-4 24-6 30-10 18-8 16-8 18-10 15-10 19-14 16-13 5-4 4 1 2 4-1 5-16 16-20 15-24 16-12 7-36 16-22 8-29 8-26 5-10 1h-39l-17-2-24-5-23-7-27-11-19-9-19-12-18-13-11-10-11-9-19-19-7-8-13-15-9-11-12-15-8-11-16-21-12-16-16-21-14-18-11-14-14-18-9-12-10-13-14-18-13-16-14-19-12-15-12-16-16-21-9-12-14-19-13-18-4-4 1 3v273l1 15 2 1 44 3 4 2 1 2v7l-2 2-103 1-3-7 1-6 5-2 19-2h14l1-309-8-10-7-7-14-9-16-7-12-3-7-1h-27l-11 3-10 3-3-1 10-15 6-5 5-2h25l26 4 26 6 24 8 17 9 12 9 15 14 10 11 8 10 11 14 12 15 13 17 9 11 13 17 13 16 21 28 13 16 12 16 16 21 36 48 14 18 11 16 12 17 7 9-1-7v-271l1-31-1-4h-21l-16-1-2-2v-9l1-1h94l-1-83-2-10-6-12-7-8-14-9-19-8-18-4h-28l-17 3-21 7-18 8-16 9-17 12-11 9-13 12-9 9-9 11-9 6-4 2h-4l1-6 8-11 10-13 23-23 11-9 14-10 15-9 16-8 19-7 22-5 17-2h17l19 3 18 6 16 9 11 9 3 3-5-18-8-16-9-11-11-12-12-12z" fill="#FEFEFE"/>
<path transform="translate(1417,577)" d="m0 0 4 1 6 2 2 5 5-5 6 1 3 3v8l-2 4-5 1-5-6 5 32 6 38 4 36 2 32v27l-1 27-4 40-4 26-6 29-9 32-10 28-7 17-7 15-13 25-14 21-10 11-5 5-10 9-15 9-16 7-19 4h-36l-23-3-23-6-18-8-17-11-10-8-20-18-15-16-11-12-7-8-13-15-9-11-12-14-9-10-9-11-16-17-5-4-4-2 1-5 44-44 8-7 11-11 8-7 16-16 8-7 13-13 8-7 7-7 8-7 15-14 17-16 8-7 14-12h-64l-6-4-1-4 6-5 17-1 114-1 5 3 1 2v6l-2 3-5 1-38 1-14 8-13 11-10 10-8 7-13 12-17 16-4 4h-2v2l-8 7-11 11-8 7-7 7-8 7-10 10h-2v2l-8 7-15 15-6 7-7 5 6 8 13 14 9 11 11 12 7 8 9 10 9 11 7 7 7 8 13 15 11 12 9 10 14 14 8 7 15 12 15 9 12 6 16 5 16 2 18-2 13-4 14-7 11-8 13-13 12-17 13-24 9-19 10-24 9-27 9-36 5-26 5-42 2-27v-41l-4-52-7-49-7-38-1-7z" fill="#FDFDFD"/>
<path transform="translate(1038,237)" d="m0 0 11 1 25 5 52 13 42 13 22 8 28 11 30 13 19 9 19 10 26 14 16 10 18 11 16 11 17 12 16 13 11 9 14 12 10 9 11 11 7 8 7 7 9 11 7 8 13 17 11 15 10 15 12 20 16 29 12 25 11 27 7 19 10 33 9 41 5 33 1 10 1 22v45l-3 32-6 39-6 27-8 29-11 32-13 30-8 16-9 17-13 21-13 20-10 13-14 17-13 15-7 8-19 19h-2v2l-8 7-14 12-16 13-12 9-17 12-18 11-17 10-29 15-24 10-27 10-23 7-34 8-31 5-28 3-14 1h-57l-35-3-40-6-27-6-35-10-26-9-22-9-33-16-24-14-25-17-14-11-16-13-17-16-13-13-7-8-13-16-12-17-10-18-9-19-4-11v-2l9 3 6 7 10 18 16 24 10 14 11 13 15 16 12 11 17 14 18 14 19 12 20 12 29 15 25 11 27 10 32 9 32 7 29 5 35 4 38 1 30-1 34-3 27-4 25-5 36-10 28-10 29-13 24-12 27-16 19-13 21-16 14-11 10-9 8-7 29-29 9-11 11-13 16-23 12-18 8-13 13-24 9-19 13-32 11-34 6-25 7-34 4-33 1-13v-62l-3-31-5-29-11-44-12-36-12-29-16-33-11-21-14-23-7-11-13-18-10-13-9-11-9-10-9-11-16-17-7-7-11-9-7-7-11-9-17-14-19-14-20-13-28-17-24-14-22-12-40-18-40-15-30-10-46-13-42-10-15-3z" fill="#FDFDFD"/>
<path transform="translate(802,455)" d="m0 0h68l34 3 33 5 30 7 27 8 31 11 26 11 27 13 20 12 16 11 19 14 14 10 13 11 9 8 8 7 15 15-1 2-18-18-2-1v-2l-4-2-14-12-12-9-12-8-14-9h-3l-1 5 13 9 11 9 14 12 10 9 7 5v2l4 2 20 20 9 11 10 12 3 4v2l5 2-1 3-3-1-11-14-10-11-7-8-5-6-8-7-9-9-11-9-10-9-14-11-15-12-18-12-17-10-16-8-23-11-27-11-33-11-36-9-41-7-30-3h-69l-34 3-26 4-27 6-35 10-20 7-24 10-24 11-23 13-17 10-19 13-16 12-13 10-13 11-15 14-16 16-7 8-10 11-10 13-11 14-12 17-9 15-14 25-14 28-13 32-10 30-8 32-6 31-4 33-1 17v49l3 34 4 26 7 33 7 25 10 30 13 31 12 25 12 22 13 22 16 24 8 11 9 12 8 10 18 20 10 10 7 8 7 7 8 7 11 10 11 9 16 13 18 13 15 10 18 11 24 14 29 15 25 12 9 4-3 1-19-8-24-11-23-11-26-14-9-6-13-8-11-7-20-14-18-13-16-12-13-12-12-11-21-21-7-8-11-13-11-14-13-18-10-15-11-18-14-25-14-28-15-37-12-37-6-24-6-31-4-30-1-13-1-40 1-30 3-28 5-30 6-28 9-31 8-23 10-25 12-25 11-21 11-18 10-15 10-14 11-14 12-14 7-8 9-10 11-12 10-10 8-7 13-12 13-11 19-14 21-14 21-13 35-18 26-11 22-8 33-10 29-7 28-5 28-3z" fill="#FEFEFE"/>
<path transform="translate(863,245)" d="m0 0h48l34 3 36 6 48 12 38 13 26 11 32 16 25 15 15 10 18 13 16 13 11 10 11 9 10 10 3 2v2l4 2 7 8 13 14 11 14 11 13 13 18 20 32 14 25 8 16 9 20 12 31 7 23 8 32 5 28 3 27 1 14v51l-3 34-4 25-6 29-10 35-8 23-11 25-4-1-5-10 1-7 8-21 10-30 7-28 6-33 3-27 1-15v-54l-3-29-6-35-8-31-12-36-8-20-12-25-12-23-14-23-15-22-13-18-12-14-9-11-35-35-14-11-16-13-18-13-15-10-28-16-17-9-29-13-27-10-30-9-29-7-35-6-30-3-23-1h-29l-34 2-29 4-33 7-35 10-26 9-21 9-26 12-22 12-22 13-19 12-24 16-12 9-10 8-10 9-8 7-17 16-7 7h-2l-2 4-9 9-7 8-10 11-8 10-14 18-13 18-10 15-14 23-13 23-14 28-9 20-13 32-12 33-9 28-9 31-8 36-7 37-6 37-3 24-2 3 2-27 4-30 7-39 10-45 14-47 10-30 7-19 10-25 10-23 8-15 8-16 13-25 11-18 8-13 10-15 12-17 11-14 9-11 11-13 7-7 7-8 7-7 7-8 7-7 8-7 10-9 11-9 16-13 18-13 14-10 21-13 18-10 23-12 26-12 28-11 29-9 32-8 27-5 23-3z" fill="#FEFEFE"/>
<path transform="translate(584,831)" d="m0 0h3l2 9-3 15-9 29-7 32-5 35-2 24v67l3 30 5 32 6 26 8 27 9 24 12 26 13 26 12 21 20 30 9 12 11 14 12 14 15 16 7 7 8 7 13 12 11 9 15 12 18 13 15 10 24 14 19 10 28 13 28 10 33 10 28 6 32 5 28 3 21 1h34l32-2 28-4 30-6 36-10 33-11 26-11 32-16 23-13 21-13 18-12 14-10 12-9 16-13 10-9 8-7 13-12 15-15 9-11 11-13 10-13 13-18 17-25 12-20 15-28 19-39 12-27 10-27 7-19 10-31 4-15h1l-1 9-6 21-14 39-9 27-7 15-11 23-7 15-12 25-10 19-8 14-25 40-10 15-13 17-8 10-13 15-25 25-8 7-17 14-16 13-12 9-17 12-19 12-22 13-35 18-30 13-23 8-18 6-36 9-33 6-24 3-17 1h-49l-33-2-31-4-30-6-35-9-32-11-28-12-21-10-24-14-21-13-18-13-14-11-13-11-11-9-7-7-8-7-7-7-7-8-11-11-7-8-11-13-9-12-13-18-10-15-9-15-15-28-8-16-9-20-10-27-10-34-7-33-4-32-2-30v-35l1-26 5-44 7-36 8-25 11-25z" fill="#FEFEFE"/>
<path transform="translate(953,707)" d="m0 0h23l7 1v321l-3 4-37 1-2-1 1-302 2-11 4-11z" fill="#334758"/>
<path transform="translate(464,1295)" d="m0 0 4 1 21 21 7 9 5 5v2l12 6 3-2 8 7 17 12 15 11 16 11 11 7 18 11 13 8 29 15 26 12 20 9 10 3-10-4 3-1 28 11 20 8 17 6 25 8 36 13 26 9 11 4v2h-10l-17-3-16-4-12-2-7-2-24-6-14-4-33-7-37-5-14-4-22-11-2-2-13-5-11-6v-2l-5-1-14-7-11-7-12-8-14-11-10-8-17-14-17-16-15-14-16-16-7-8-12-15-9-13z" fill="#54606B"/>
<path transform="translate(553,694)" d="m0 0 7 1 1 2v11l-3 24-4 17-5 13-16 32-7 16-11 33-9 33-6 37-4 32-2 33v39l2 39 4 33 11 62-1 10-4 2v4h-7l-4-2-3-5-7-3-24-5v-1l29 1 4 6 2 1-3-24-8-50-3-26-3-44v-45l4-39 7-47 5-24 9-31 9-27 12-25 9-19 5-12 5-21 4-27 2-3z" fill="#FEFEFE"/>
<path transform="translate(663,385)" d="m0 0 10 5 6 7 1 7 12-2 31-6 50-6 18-1h87l28 2 40 6 38 8 25 7 29 10 29 12 33 16 18 10 4 4-1 7-3 1-1 3-6-1-17-10-25-13-26-11-24-9-33-10-39-9-24-4-41-4-23-1h-52l-33 2-42 5-36 6-22 5h-3l1-24-1-4-4-2-4-3z" fill="#FEFEFE"/>
<path transform="translate(812,1271)" d="m0 0 6 1 29 15 24 11 27 11 33 11 40 10 36 6 16 2 46 3h34l44-3 41-5 30-5 20 1 3 2-1-9 7-3h3l1 6 3 1v2l-3 2 3 10v8l-9 1-3-3v-6l-11 2-76 10-27 2-24 1h-42l-42-3-37-5-31-6-35-10-27-10-26-11-23-10-16-8-18-10-2-3z" fill="#FEFEFE"/>
<path transform="translate(830,533)" d="m0 0 4 1-2 5 9-1-6-3v-2h8v4l4-4h3l-2 4v1h5l1-2h3v2l5 1 1-2 4 2v3h-64l-43 7-30 7-36 12-26 10-14 6-3-1 16-8 26-10 31-10 11-3 24-6 35-6h7l-1-2-30 4-18 3-29 7-29 9-20 7-20 9-16 8-22 12-19 12-20 14-14 12-16 15-27 27-7 8-11 13-2 1-3 6h-2l-2 4-15 22-12 20-14 27-10 25-12 36-5 18-7 35-3 25-1 14v57l5 45 7 35 7 25 15 42 6 15 4 15-1 3-8-22-11-27-8-23-8-27-6-27-5-35-1-12v-72l3-27 5-28 10-40 11-32 9-21 8-16 10-18 10-16 10-15 9-11 6-4 9-10 7-8 15-16 12-13 4-4h2v-2l11-9 10-10 17-13 10-7 11-6 13-8 16-9 30-14 17-7 32-10 24-6 30-5 15-2 19-2h5l-3 3-2 1h25z" fill="#FEFEFE"/>
<path transform="translate(526,1229)" d="m0 0h14l9 3 10 9 5 10 1 4v10l-3 10-6 9-7 5-5 2h-18l-10-4-7-6-6-10-2-7v-10l4-10 6-8 8-5z" fill="#FEFEFE"/>
<path transform="translate(1385,450)" d="m0 0h12l12 6 10 13 4 9v12l-4 10-7 7-7 4-4 1h-18l-10-4-7-7-5-9-1-4v-14l4-9 7-8 10-6z" fill="#FEFEFE"/>
<path transform="translate(571,410)" d="m0 0 13 1 8 4 7 7 5 10 1 5-1 13-4 8-7 8-8 5-3 1h-17l-12-6-7-8-4-9v-13l4-10 6-8 10-6z" fill="#FEFEFE"/>
<path transform="translate(1346,1270)" d="m0 0h17l8 4 7 7 4 8 1 4v13l-4 9-7 8-8 5-10 3h-9l-10-3-9-8-4-8-1-3v-15l4-9 5-7 9-6z" fill="#FEFEFE"/>
<path transform="translate(850,316)" d="m0 0h22l35 2 21 2 24 4 16 3 16 4 19 5 29 10 27 11 18 8 22 12 23 15 14 10 14 11 13 12 10 9 19 19 9 11 10 12 12 16 13 18 14 24 9 16 9 20 8 21-1 5-3-2-10-26-9-20-11-21-19-28-16-21-22-26-11-12-15-14-14-11-12-9-12-8-10-7-29-17-28-14-31-12-24-8-22-6-6-2-37-6-25-3-32-2-12-1-1 1-43 2-26 3-33 6-26 8-30 11-14 6-15 7-13 7 5 8-3 1-5-6-1-4 11-7 23-11 21-9 25-9 30-8 27-5 23-3z" fill="#FEFEFE"/>
<path transform="translate(798,537)" d="m0 0 3 1v2l-42 7-24 6-24 7-23 8-25 10-11 5-4 4-19 10-21 13-18 12-3 1-1 3-8 6h-3l-2 4-5 5h-2v6l-3 4h-2l-2 4-7 7-7 8-8 8h-2l-2 5-8 12-7 7-8 7h-2v2l-5 5h-3v2h-2v-2h-3v-5l2-2 5-8h2l2-4v-2-3l12-13 7-8 31-31 8-7 10-9 23-16 16-10 16-9 18-10 27-12 35-12 25-7 28-6 32-4z" fill="#3B4D5D"/>
<path transform="translate(631,1073)" d="m0 0h2l5 26 8 28 13 34 9 20 13 24 6 11 10 17 11 17 13 18 10 12 9 11 17 17 8 7 8 8 14 11 16 11 10 7 16 10 19 10 26 12 12 6 26 10 21 6 31 7 42 6 34 2h34l32-2 33-5 29-6 40-11 36-12 13-5 2 1-12 6-38 13-39 11-26 6-36 6-36 2h-40l-29-2-29-4-34-7-23-6-34-13-27-13-16-8-20-11-10-7-13-9-11-8-13-10-14-13-8-7-14-15-11-12-10-13-13-18-14-22-10-18-12-22-13-27-7-18-9-28-6-29-1-5z" fill="#FEFEFE"/>
<path transform="translate(830,533)" d="m0 0 4 1-2 5 9-1-6-3v-2h8v4l4-4h3l-2 4v1h5l1-2h3v2l5 1 1-2 4 2v3h-64l-43 7-30 7-36 12-26 10-14 6-3-1 16-8 26-10 31-10 11-3 24-6 35-6h7l-1-2-30 4-18 3-29 7-29 9-20 7-20 9-16 8-22 12-19 12-20 14-14 12-16 15-27 27-7 8-4 2 4-6 9-9 7-8 16-17 3-3h2v-2l11-9 10-10 17-13 10-7 11-6 13-8 16-9 30-14 17-7 32-10 24-6 30-5 15-2 19-2h5l-3 3-2 1h25z" fill="#FEFEFE"/>
<path transform="translate(636,1067)" d="m0 0 2 1 8 35 7 24 8 22 11 26 9 17 6 12 11 19 16 24 14 19 12 14 11 12 9 10 13 13 11 9 16 12 20 14 14 9 16 8 19 9 19 8 15 6 16 6 21 6 29 6 39 5 24 2v1h-17l-35-4-29-5-29-7-25-9-24-10-28-13-15-8-9-5-20-13-11-8-14-12-10-9-8-7-6-7-12-12-20-25-13-18-12-19-12-21-15-29-12-27-9-27-6-23-5-25z" fill="#FEFEFE"/>
<path transform="translate(528,1241)" d="m0 0h10l8 4 5 5 3 7v7l-3 8-7 6-5 2h-9l-8-3-7-8-2-6v-7l3-8 6-5z" fill="#334758"/>
<path transform="translate(1385,463)" d="m0 0h10l8 3 5 6 2 4v12l-4 7-6 5-6 2-9-1-6-4-6-8-1-4v-7l3-7 4-5z" fill="#334758"/>
<path transform="translate(1576,1028)" d="m0 0h1l-1 9-5 21-2 13-7 24-7 20-10 25-6 11-3 4h-2l-2 6-7 16-8 16-11 20-9 15-7 8-1 5h-2l-1 4-3 2-1 3-3 1 2-5 11-18 11-19 8-16 11-23 6-13 13-27 8-19 12-36 9-25z" fill="#54606B"/>
<path transform="translate(1347,1282)" d="m0 0h12l6 4 4 5 1 2v12l-5 8-8 5-9 1-8-4-6-7-1-4v-7l4-8 6-5z" fill="#334658"/>
<path transform="translate(570,423)" d="m0 0h9l7 4 5 7 1 8-3 9-5 6-6 3h-10l-6-3-6-8-1-9 3-9 8-7z" fill="#334658"/>
<path transform="translate(1600,1009)" d="m0 0h1l-1 8-10 36-7 22-12 34-11 26-8 18-12 25-14 27-8 13-9 15-16 24-16 22-10 13-9 11-4 5h-2l-2 4-12 13-7 8-8 9-8 7-5 4-13 13h-2v-2l6-5 7-8 11-9 8-8 7-8 11-13 13-15 15-20 10-14 13-19 10-15 14-23 12-22 10-19 13-28 9-21 12-31 11-33 10-35z" fill="#FEFEFE"/>
<path transform="translate(635,591)" d="m0 0 3 1-22 13-19 12-8 6h-2l-1 3-8 6h-3l-2 4-5 5h-2v6l-3 4h-2l-2 4-7 7-7 8-8 8h-2l-2 5-8 12-7 7-8 7h-2v2l-5 5h-3v2h-2v-2h-3v-5l2-2 5-8h2l2-4 4-6 15-15 8-7 4-2 1 2 5-4 6-10 3-1 1-5 12-12 5-4 7-4 5-5 5-3 20-14 18-11z" fill="#54606B"/>
<path transform="translate(531,376)" d="m0 0h2l-2 4-17 16-35 35-9 11-11 12-8 10-10 14-12 17-13 18-15 26-17 33-8 17-12 28-13 34-12 36-8 27-9 40h-1l1-13 8-34 11-37 11-31 10-26 10-23 12-25 12-24 10-18 9-14 12-17 10-14 14-19 24-28 42-42 8-7z" fill="#FEFEFE"/>
<path transform="translate(1285,304)" d="m0 0 5 1 7 3 5 4 11 6 19 10 11 9 9 8 13 10 4 3v2l5 2 12 10 9 7 14 12 9 7 13 11 12 11 8 7 23 23 9 11v3l-24-24v-2h-2l-7-8-12-11-13-10-12-10-5-5-14-12-17-14-8-6-9-5-16-12-2 1-4-2-1-5-4-1v-2l-4-2-7-6-15-8-9-6-9-5z" fill="#54606B"/>
<path transform="translate(1006,219)" d="m0 0h9l29 4 33 6 40 10 25 7 30 10 10 4 11 4 3 1 1 3-12-3-8-3-25-9-30-8-4-2-21-5-5-2-26-6-19-3-12-2-29-4z" fill="#54606B"/>
<path transform="translate(830,533)" d="m0 0 4 1-2 5 9-1-6-3v-2h8v4l4-4h3l-2 4v1h5l1-2h3v2l5 1 1-2 4 2v3h-64l-43 7-30 7-36 12-26 10-14 6-3-1 16-8 26-10 31-10 11-3 24-6 43-7 11-1h17z" fill="#FEFEFE"/>
<path transform="translate(1451,552)" d="m0 0 3 2 4 8 14 24 5 12 4 7 4 13 3 5 3 9 3 7 1 5 2 1-1 4-1 2h2l4 12 2 10 2 6 1 6 2 6v4l-3-1-1-4h-2l-3-12-2-1v-2l2-2-3-5 1-4-3-4-1-9-3-1v-3l2-1-4-7-1-5-7-19-7-17-8-17-10-18-4-9z" fill="#FEFEFE"/>
<path transform="translate(1169,446)" d="m0 0 5 2 9 10 12 12 13 17 14 18 10 16 9 15 8 16 13 30 16 48-1 4-10-29-7-20-14-32-11-21-7-10-8-13-9-12-16-21-12-14-12-12z" fill="#FEFEFE"/>
<path transform="translate(1533,1148)" d="m0 0 2 1-2 7-6 12-3 7-2 9-12 22-13 22-7 8-1 5h-2l-1 4-3 2-1 3-3 1 2-5 11-18 11-19 8-16 11-23 6-13z" fill="#54606B"/>
<path transform="translate(1367,359)" d="m0 0 5 2 13 10 10 8 14 12 9 7 13 11 12 11 8 7 23 23 9 11v3l-24-24v-2h-2l-7-8-12-11-13-10-12-10-5-5-14-12-17-14-10-8z" fill="#55616C"/>
<path transform="translate(1551,1107)" d="m0 0 2 1-1 9 1 2-7 19-7 13-3 4h-2l-2 6-7 16-2 1 1-5 4-10 6-12-1-4 9-20 5-11z" fill="#717C85"/>
<path transform="translate(1114,400)" d="m0 0 5 1 11 8 7 4 12 8v2h2l5 5 6 7 7 6-1 3h-2l-5-5-2-5-4-1-9-8-10-7-4-4-10-7-8-6z" fill="#6C7780"/>
<path transform="translate(1510,745)" d="m0 0 5 1 2 22-2 7 4 2v2h-4v10l-3 1-2-2 1-4-2-4 2-5v-2h2l-1-7-3-1 1-3h2l-1-6-2-1 1-3h2v-3l-3-1z" fill="#F9F9F9"/>
<path transform="translate(830,533)" d="m0 0 4 1-2 5 9-1-6-3v-2h8v4l4-4h3l-2 4v1h5l1-2h3v2l5 1 1-2 4 2v3l-64-1 1-2 9-1h17z" fill="#FEFEFE"/>
<path transform="translate(1595,949)" d="m0 0 1 3-6 28-5 21-7 27h-1v-12l6-22 9-37z" fill="#55616C"/>
<path transform="translate(1266,1369)" d="m0 0h3l-1 3-37 14-31 10-12 3-4-1 32-10 28-10z" fill="#FEFEFE"/>
<path transform="translate(1429,1023)" d="m0 0h8l5 3 5 7-1 4-5-1-7-7v-2l-2 1-1 5-6 1-1-1v-5z" fill="#FEFEFE"/>
<path transform="translate(458,1153)" d="m0 0 3 1 5 14 12 21 8 11 7 11-1 2-9-12-10-14-14-24z" fill="#5B6671"/>
<path transform="translate(1493,898)" d="m0 0h7l2 3v8l-1 7-4 6-2-1v-2l-6-3v-4h6l3 2v-13l-3 2 1 5-5-1 1-8z" fill="#FEFEFE"/>
<path transform="translate(975,227)" d="m0 0h8l55 8v2h-12l-41-7-10-2z" fill="#606B76"/>
<path transform="translate(1422,1034)" d="m0 0 2 1 3 6v2h7l-1-5 1-4h3l2 5 4 2-2 4-8 2h-6l-6-5v-7z" fill="#FEFEFE"/>
<path transform="translate(1367,359)" d="m0 0 5 2 13 10 10 8 14 12 5 5h-3l-10-8-14-12-20-16z" fill="#FEFEFE"/>
<path transform="translate(1503,705)" d="m0 0h2v3h5l2 2-1 7-1 2h2l1 4 1 5-7-3-1-5v-3h-2v-4h2l-3-6z" fill="#818B93"/>
<path transform="translate(1509,790)" d="m0 0 3 1 1 2 5 2 4 5-1 8-4 4-4 1-5-4v-5l3-1 3 6 5-3-1-4-4-5-6-3z" fill="#FEFEFE"/>
<path transform="translate(635,591)" d="m0 0 3 1-22 13-19 12-10 7-2-1 9-7 18-12 13-8z" fill="#FEFEFE"/>
<path transform="translate(1533,1148)" d="m0 0 2 1-2 7-6 12-5 12-3 1 1-7 7-16z" fill="#40505F"/>
<path transform="translate(1600,1009)" d="m0 0h1l-1 8-10 36-4 13h-2l2-10 11-38z" fill="#FEFEFE"/>
<path transform="translate(1436,1325)" d="m0 0v3l-8 8-5 6-8 7-5 4-13 13h-2v-2l6-5 7-8 11-9z" fill="#FEFEFE"/>
<path transform="translate(1458,999)" d="m0 0 1 3 5 2v2h-8l-1 9-4 2-3-1v-2l2-1 1-3-4-1v-2l2-1h6l1-5z" fill="#FEFEFE"/>
<path transform="translate(316,867)" d="m0 0h3l-1 19-2 20-2 2v-18z" fill="#54606B"/>
<path transform="translate(471,1191)" d="m0 0 2 1v2l3 1 10 16 10 14-1 2-10-12-10-14-3-4z" fill="#66717B"/>
<path transform="translate(1547,565)" d="m0 0 3 3 9 19 11 28-1 3-5-12-5-11-11-25z" fill="#54606B"/>
<path transform="translate(1609,973)" d="m0 0 2 1-1 7-4 16-4 15-2-3 1-7 7-27z" fill="#59656F"/>
<path transform="translate(1486,944)" d="m0 0h3l-1 6-8 3 5 4v2l-5 1-3-1-2-3v-3l6-5z" fill="#FEFEFE"/>
<path transform="translate(320,754)" d="m0 0h1v8l-7 33-2 12h-1l1-16 6-31z" fill="#6B757F"/>
<path transform="translate(1392,1366)" d="m0 0 3 1-9 8-17 13-14 11h-2v-2l13-10 17-13z" fill="#FEFEFE"/>
<path transform="translate(1583,996)" d="m0 0h2l-1 8-6 24h-1v-12l5-19z" fill="#6D7881"/>
<path transform="translate(1022,1414)" d="m0 0h20l36 1v1l-54 1z" fill="#54606B"/>
<path transform="translate(1500,881)" d="m0 0 6 2 2 2v6l-6-2-4 1-1-3z" fill="#FEFEFE"/>
<path transform="translate(1508,728)" d="m0 0 4 1 3 9-1 5-5-1v-7z" fill="#FEFEFE"/>
<path transform="translate(1311,1426)" d="m0 0 4 1-3 1zm-1 1v3l-2-2zm-3 2 1 3-18 10h-3v-2l18-10z" fill="#6D7781"/>
<path transform="translate(1512,776)" d="m0 0 1 2h2v-2l4 1v2h-4v10l-3 1-2-2 1-4-2-4z" fill="#FEFEFE"/>
<path transform="translate(625,304)" d="m0 0 2 1-10 7-15 9-4 3h-2l1-3 13-8z" fill="#54606B"/>
<path transform="translate(1114,400)" d="m0 0 5 1 11 8 8 6v2l-5-2-11-8-8-6z" fill="#FEFEFE"/>
<path transform="translate(549,359)" d="m0 0 2 2-17 17-1-4 7-6 5-6h2v-2z" fill="#757F87"/>
<path transform="translate(854,536)" d="m0 0h3v2l5 1 1-2 4 2v3l-21-1 1-2 6-1z" fill="#FEFEFE"/>
<path transform="translate(1503,855)" d="m0 0h6l5 8-1 2-4-2-5-3-2-1z" fill="#FEFEFE"/>
<path transform="translate(1506,841)" d="m0 0h2v7l3-1 2-4h2l-3 12h-2l-2-4-3-1z" fill="#FEFEFE"/>
<path transform="translate(1131,1408)" d="m0 0h12v1l-11 1zm-7 1h7v2l-7 2h-10l4-3z" fill="#A1A8AE"/>
<path transform="translate(1441,1015)" d="m0 0 6 4 4 3v4l-6-2-5-5z" fill="#FEFEFE"/>
<path transform="translate(1507,869)" d="m0 0 2 3-1 9h-3l1-6h-5v-3l6-1z" fill="#FEFEFE"/>
<path transform="translate(1351,1399)" d="m0 0 2 1-7 6-8 6-2-1 3-4 4-2 5-5z" fill="#B2B7BC"/>
<path transform="translate(1466,978)" d="m0 0 3 1 3 4v3l-4 1-4-2z" fill="#FEFEFE"/>
<path transform="translate(1475,959)" d="m0 0 3 1 1 8-4 2-2-2v-5z" fill="#FEFEFE"/>
<path transform="translate(1472,970)" d="m0 0 3 3 1 9-7-6v-4z" fill="#FEFEFE"/>
<path transform="translate(835,533)" d="m0 0h8v4l4-4h3l-2 4-3 2-4-1-6-3z" fill="#B2B7BC"/>
<path transform="translate(1583,996)" d="m0 0h2l-1 8-2 6-2 1v-7z" fill="#707A83"/>
<path transform="translate(1513,817)" d="m0 0h4l-2 4-7 4-3-1 1-3 6-3z" fill="#FEFEFE"/>
<path transform="translate(1157,431)" d="m0 0 8 6 4 4-1 3h-2l-5-5-2-5h-2z" fill="#B1B6BB"/>
<path transform="translate(1503,705)" d="m0 0h2v3h5l2 2v5l-2 1-5-5z" fill="#FEFEFE"/>
<path transform="translate(1488,1236)" d="m0 0h1v5h-2l-1 4-3 2-1 3-3 1 2-5 6-9z" fill="#54606B"/>
<path transform="translate(1533,1148)" d="m0 0 2 1-2 7-4 7-2-3 2-5z" fill="#445462"/>
<path transform="translate(1428,1037)" d="m0 0 4 1 3 3-1 3-7-1z" fill="#77838E"/>
<path transform="translate(1462,988)" d="m0 0 3 1v5l-6 5-1-3z" fill="#FEFEFE"/>
<path transform="translate(798,537)" d="m0 0 3 1v2l-16 2-1-3 11-1z" fill="#455462"/>
<path transform="translate(1409,1350)" d="m0 0 1 3-13 13h-2v-2l6-5 7-8z" fill="#BCC1C5"/>
<path transform="translate(1509,720)" d="m0 0h3l2 4-1 4-6-3-1-4z" fill="#FEFEFE"/>
<path transform="translate(1501,695)" d="m0 0h4l2 5 3 3v2l-5-1-4-6z" fill="#FEFEFE"/>
<path transform="translate(1484,931)" d="m0 0h7l1 4-3 2-6-3z" fill="#FEFEFE"/>
<path transform="translate(1508,833)" d="m0 0 5 1-1 6-3 1-3-4v-3z" fill="#FEFEFE"/>
<path transform="translate(1483,937)" d="m0 0 6 2v3l-4 1-2-1-2 4h-2l2-4z" fill="#FEFEFE"/>
<path transform="translate(1214,631)" d="m0 0 3 1 4 6v5l-3 1-2-7z" fill="#6A757E"/>
<path transform="translate(819,533)" d="m0 0h9l-2 3h-9l-1 1h-5l3-3z" fill="#FEFEFE"/>
<path transform="translate(1277,634)" d="m0 0 3 1 3 8-1 5-3-4z" fill="#66717B"/>
<path transform="translate(1518,1178)" d="m0 0 1 3 4-3-1 6-2 4h-2v-3h-2z" fill="#7A848C"/>
<path transform="translate(1609,973)" d="m0 0 2 1-1 7-2 6h-2l1-9z" fill="#54606B"/>
<path transform="translate(833,533)" d="m0 0 4 1v2l5 1-1 2h-9z" fill="#3D4E5E"/>
<path transform="translate(582,624)" d="m0 0h5l-5 5-7 4-2-1z" fill="#727B84"/>
<path transform="translate(1101,391)" d="m0 0 7 3 5 4 3 2-3 1-10-7-2-1z" fill="#54606B"/>
<path transform="translate(1523,1171)" d="m0 0h2l-3 9-3 1 1-7z" fill="#3E4F5E"/>
<path transform="translate(1551,1107)" d="m0 0 2 1-2 9-2 2-1-6z" fill="#3A4C5C"/>
<path transform="translate(805,534)" d="m0 0h5l-3 3-4 1-1 2-3-4z" fill="#F8F8F9"/>
<path transform="translate(1262,1453)" d="m0 0 3 1-4 3-7 3-3-1z" fill="#5F6A75"/>
<path transform="translate(700,657)" d="m0 0 5 3-2 4-5 1 1-7z" fill="#54606B"/>
<path transform="translate(810,534)" d="m0 0 5 3v2h-12l4-3z" fill="#465563"/>
<path transform="translate(1483,942)" d="m0 0 7 1-1 4v-3l-5 3-4 2 2-5z" fill="#425261"/>
<path transform="translate(1153,426)" d="m0 0 5 5-2 3-6-7z" fill="#54606B"/>
</svg>
